<?xml version="1.0" encoding="UTF-8" standalone="no"?>
<!DOCTYPE svg PUBLIC "-//W3C//DTD SVG 1.1//EN"
 "http://www.w3.org/Graphics/SVG/1.1/DTD/svg11.dtd">
<!-- Generated by graphviz version 2.43.0 (0)
 -->
<!-- Title: FlowGraph Pages: 1 -->
<svg width="477pt" height="200pt"
 viewBox="0.00 0.00 477.00 200.00" xmlns="http://www.w3.org/2000/svg" xmlns:xlink="http://www.w3.org/1999/xlink">
<g id="graph0" class="graph" transform="scale(1 1) rotate(0) translate(4 196)">
<title>FlowGraph</title>
<polygon fill="white" stroke="transparent" points="-4,4 -4,-196 473,-196 473,4 -4,4"/>
<!-- 0x25DEc5437326331b7555837013F77a5f525f68d0 -->
<g id="node1" class="node">
<title>0x25DEc5437326331b7555837013F77a5f525f68d0</title>
<g id="a_node1"><a xlink:href="https://etherscan.io/address/0x25DEc5437326331b7555837013F77a5f525f68d0" xlink:title="地址: 0x25DEc5437326331b7555837013F77a5f525f68d0\n流入: 0.00 USD\n流出: 580076.04 USD\n剩余: &#45;580076.04 USD">
<path fill="#f0eae1" stroke="black" d="M155.01,-126.28C155.01,-126.28 7.34,-126.28 7.34,-126.28 3.51,-126.28 -0.32,-122.45 -0.32,-118.61 -0.32,-118.61 -0.32,-110.95 -0.32,-110.95 -0.32,-107.11 3.51,-103.28 7.34,-103.28 7.34,-103.28 155.01,-103.28 155.01,-103.28 158.84,-103.28 162.68,-107.11 162.68,-110.95 162.68,-110.95 162.68,-118.61 162.68,-118.61 162.68,-122.45 158.84,-126.28 155.01,-126.28"/>
<text text-anchor="middle" x="81.18" y="-111.08" font-family="Times,serif" font-size="14.00">SRC: 0x25DE...68d0</text>
</a>
</g>
</g>
<!-- 0x6e34FAa64A9FA9d9759480Bf168D54a77e8fB3fD -->
<g id="node5" class="node">
<title>0x6e34FAa64A9FA9d9759480Bf168D54a77e8fB3fD</title>
<g id="a_node5"><a xlink:href="https://etherscan.io/address/0x6e34FAa64A9FA9d9759480Bf168D54a77e8fB3fD" xlink:title="地址: 0x6e34FAa64A9FA9d9759480Bf168D54a77e8fB3fD\n流入: 580076.04 USD\n流出: 580073.40 USD\n剩余: 2.64 USD">
<path fill="#ccffcc" stroke="black" d="M148.41,-94.66C148.41,-94.66 28.41,-94.66 28.41,-94.66 22.41,-94.66 16.41,-88.66 16.41,-82.66 16.41,-82.66 16.41,-20.66 16.41,-20.66 16.41,-14.66 22.41,-8.66 28.41,-8.66 28.41,-8.66 148.41,-8.66 148.41,-8.66 154.41,-8.66 160.41,-14.66 160.41,-20.66 160.41,-20.66 160.41,-82.66 160.41,-82.66 160.41,-88.66 154.41,-94.66 148.41,-94.66"/>
<text text-anchor="middle" x="88.41" y="-47.96" font-family="Times,serif" font-size="14.00">0x6e34...B3fD</text>
</a>
</g>
</g>
<!-- 0x25DEc5437326331b7555837013F77a5f525f68d0&#45;&gt;0x6e34FAa64A9FA9d9759480Bf168D54a77e8fB3fD -->
<g id="edge1" class="edge">
<title>0x25DEc5437326331b7555837013F77a5f525f68d0&#45;&gt;0x6e34FAa64A9FA9d9759480Bf168D54a77e8fB3fD</title>
<g id="a_edge1"><a xlink:href="https://etherscan.io/tx/" xlink:title="金额: 580076.04 USD&#10;跳数: 1&#10;交易: ">
<path fill="none" stroke="#5873e0" stroke-width="6.5" d="M82.5,-103.2C82.52,-103.04 82.54,-102.88 82.56,-102.72"/>
<polygon fill="#5873e0" stroke="#5873e0" stroke-width="6.5" points="87.98,-105.34 83.47,-94.76 76.68,-104.04 87.98,-105.34"/>
</a>
</g>
<g id="a_edge1&#45;label"><a xlink:href="https://etherscan.io/tx/" xlink:title="580K">
<text text-anchor="middle" x="69.53" y="-94.96" font-family="Times,serif" font-size="10.00">580K</text>
</a>
</g>
</g>
<!-- 0x2Abc22eb9A09EbBE7b41737CCde147F586EfeB6A -->
<g id="node2" class="node">
<title>0x2Abc22eb9A09EbBE7b41737CCde147F586EfeB6A</title>
<g id="a_node2"><a xlink:href="https://etherscan.io/address/0x2Abc22eb9A09EbBE7b41737CCde147F586EfeB6A" xlink:title="地址: 0x2Abc22eb9A09EbBE7b41737CCde147F586EfeB6A\n流入: 580043.07 USD\n流出: 0.00 USD\n剩余: 580043.07 USD">
<path fill="#ffcccc" stroke="black" d="M456.59,-191.69C456.59,-191.69 336.59,-191.69 336.59,-191.69 330.59,-191.69 324.59,-185.69 324.59,-179.69 324.59,-179.69 324.59,-117.69 324.59,-117.69 324.59,-111.69 330.59,-105.69 336.59,-105.69 336.59,-105.69 456.59,-105.69 456.59,-105.69 462.59,-105.69 468.59,-111.69 468.59,-117.69 468.59,-117.69 468.59,-179.69 468.59,-179.69 468.59,-185.69 462.59,-191.69 456.59,-191.69"/>
<text text-anchor="middle" x="396.59" y="-144.99" font-family="Times,serif" font-size="14.00">0x2Abc...eB6A</text>
</a>
</g>
</g>
<!-- 0x904450202F2320cBb64E3AdFc79ab3D03625D995 -->
<g id="node3" class="node">
<title>0x904450202F2320cBb64E3AdFc79ab3D03625D995</title>
<g id="a_node3"><a xlink:href="https://etherscan.io/address/0x904450202F2320cBb64E3AdFc79ab3D03625D995" xlink:title="地址: 0x904450202F2320cBb64E3AdFc79ab3D03625D995\n流入: 580073.40 USD\n流出: 580059.22 USD\n剩余: 14.17 USD">
<path fill="#ccffcc" stroke="black" d="M302.81,-86.38C302.81,-86.38 182.81,-86.38 182.81,-86.38 176.81,-86.38 170.81,-80.38 170.81,-74.38 170.81,-74.38 170.81,-12.38 170.81,-12.38 170.81,-6.38 176.81,-0.38 182.81,-0.38 182.81,-0.38 302.81,-0.38 302.81,-0.38 308.81,-0.38 314.81,-6.38 314.81,-12.38 314.81,-12.38 314.81,-74.38 314.81,-74.38 314.81,-80.38 308.81,-86.38 302.81,-86.38"/>
<text text-anchor="middle" x="242.81" y="-39.68" font-family="Times,serif" font-size="14.00">0x9044...D995</text>
</a>
</g>
</g>
<!-- 0x6f6C4A439b464b1dE9E2856b4b5a07526fB8107a -->
<g id="node4" class="node">
<title>0x6f6C4A439b464b1dE9E2856b4b5a07526fB8107a</title>
<g id="a_node4"><a xlink:href="https://etherscan.io/address/0x6f6C4A439b464b1dE9E2856b4b5a07526fB8107a" xlink:title="地址: 0x6f6C4A439b464b1dE9E2856b4b5a07526fB8107a\n流入: 580059.22 USD\n流出: 580043.07 USD\n剩余: 16.16 USD">
<path fill="#ccffcc" stroke="black" d="M303.34,-185.65C303.34,-185.65 183.34,-185.65 183.34,-185.65 177.34,-185.65 171.34,-179.65 171.34,-173.65 171.34,-173.65 171.34,-111.65 171.34,-111.65 171.34,-105.65 177.34,-99.65 183.34,-99.65 183.34,-99.65 303.34,-99.65 303.34,-99.65 309.34,-99.65 315.34,-105.65 315.34,-111.65 315.34,-111.65 315.34,-173.65 315.34,-173.65 315.34,-179.65 309.34,-185.65 303.34,-185.65"/>
<text text-anchor="middle" x="243.34" y="-138.95" font-family="Times,serif" font-size="14.00">0x6f6C...107a</text>
</a>
</g>
</g>
<!-- 0x904450202F2320cBb64E3AdFc79ab3D03625D995&#45;&gt;0x6f6C4A439b464b1dE9E2856b4b5a07526fB8107a -->
<g id="edge3" class="edge">
<title>0x904450202F2320cBb64E3AdFc79ab3D03625D995&#45;&gt;0x6f6C4A439b464b1dE9E2856b4b5a07526fB8107a</title>
<g id="a_edge3"><a xlink:href="https://etherscan.io/tx/" xlink:title="金额: 580059.22 USD&#10;跳数: 3&#10;交易: ">
<path fill="none" stroke="#b873e0" stroke-width="6.5" d="M243.04,-86.63C243.04,-87.57 243.05,-88.51 243.05,-89.45"/>
<polygon fill="#b873e0" stroke="#b873e0" stroke-width="6.5" points="237.37,-89.58 243.11,-99.55 248.74,-89.52 237.37,-89.58"/>
</a>
</g>
<g id="a_edge3&#45;label"><a xlink:href="https://etherscan.io/tx/" xlink:title="580K">
<text text-anchor="middle" x="230.05" y="-91.04" font-family="Times,serif" font-size="10.00">580K</text>
</a>
</g>
</g>
<!-- 0x6f6C4A439b464b1dE9E2856b4b5a07526fB8107a&#45;&gt;0x2Abc22eb9A09EbBE7b41737CCde147F586EfeB6A -->
<g id="edge4" class="edge">
<title>0x6f6C4A439b464b1dE9E2856b4b5a07526fB8107a&#45;&gt;0x2Abc22eb9A09EbBE7b41737CCde147F586EfeB6A</title>
<g id="a_edge4"><a xlink:href="https://etherscan.io/tx/" xlink:title="金额: 580043.08 USD&#10;跳数: 4&#10;交易: ">
<path fill="none" stroke="#d0d0d0" stroke-width="6.5" d="M315.48,-145.49C315.57,-145.49 315.66,-145.5 315.75,-145.5"/>
<polygon fill="#d0d0d0" stroke="#d0d0d0" stroke-width="6.5" points="314.12,-151.13 324.34,-145.84 314.57,-139.76 314.12,-151.13"/>
</a>
</g>
<g id="a_edge4&#45;label"><a xlink:href="https://etherscan.io/tx/" xlink:title="580K">
<text text-anchor="middle" x="328.61" y="-148.49" font-family="Times,serif" font-size="10.00">580K</text>
</a>
</g>
</g>
<!-- 0x6e34FAa64A9FA9d9759480Bf168D54a77e8fB3fD&#45;&gt;0x904450202F2320cBb64E3AdFc79ab3D03625D995 -->
<g id="edge2" class="edge">
<title>0x6e34FAa64A9FA9d9759480Bf168D54a77e8fB3fD&#45;&gt;0x904450202F2320cBb64E3AdFc79ab3D03625D995</title>
<g id="a_edge2"><a xlink:href="https://etherscan.io/tx/" xlink:title="金额: 580073.40 USD&#10;跳数: 2&#10;交易: ">
<path fill="none" stroke="#8b73e0" stroke-width="6.5" d="M160.64,-47.79C160.74,-47.78 160.84,-47.78 160.95,-47.77"/>
<polygon fill="#8b73e0" stroke="#8b73e0" stroke-width="6.5" points="160.86,-53.47 170.54,-47.26 160.25,-42.11 160.86,-53.47"/>
</a>
</g>
<g id="a_edge2&#45;label"><a xlink:href="https://etherscan.io/tx/" xlink:title="580K">
<text text-anchor="middle" x="173.79" y="-50.78" font-family="Times,serif" font-size="10.00">580K</text>
</a>
</g>
</g>
</g>
</svg>
